<svg xmlns="http://www.w3.org/2000/svg" fill="none" viewBox="0 0 86 24">
  <defs/>
  <path id="text" fill="#533738" d="M25.6 18.1c2.9 0 4.2-1.4 4.2-3 0-4.1-7-2.3-7-5.4 0-1 1-2 3-2 1 0 2.1.3 3.1 1l.4-1c-.9-.6-2.2-1-3.5-1-2.8 0-4 1.4-4 3 0 4.2 6.8 2.3 6.8 5.4 0 1.1-1 2-3 2-1.5 0-2.9-.6-3.7-1.4l-.5 1a6 6 0 004.2 1.4zm11.6 0c1.7 0 3.1-.6 4.1-1.7l-.7-.7c-1 1-2 1.3-3.3 1.3-2.7 0-4.8-2-4.8-4.6 0-2.7 2-4.6 4.8-4.6 1.2 0 2.4.4 3.3 1.3l.7-.8c-1-1-2.4-1.6-4-1.6-3.4 0-6 2.4-6 5.7 0 3.3 2.6 5.7 6 5.7zM52 18h1.3L48 6.8h-1.2L41.8 18H43l1.4-3h6.2l1.3 3zm-7.1-4l2.7-6 2.7 6h-5.4zm18.4-7.2v9l-7.2-9h-1V18h1.2V9l7.2 9h1V6.8h-1.2zM68.1 18h4.5c3.6 0 6-2.3 6-5.6s-2.4-5.6-6-5.6h-4.5V18zm1.1-1V7.8h3.4c3 0 4.8 2 4.8 4.6 0 2.7-1.9 4.6-4.8 4.6h-3.4zm12 1h1.3V6.8h-1.2V18z"/>
  <path id="lamp" stroke="#000" stroke-width=".2" d="M7 9.6l.2 13m0 0l1.8-.3s0 0 0 0 0 0 0 0 0 0 0 0L5.3 10.6s0 0 0 0 0 0 0 0 0 0 0 0l3.7.2s0 0 0 0 0 0 0 0 0 0 0 0L5.3 22.9s0 0 0 0 0 0 0 0 0 0 0 0l2-.3zM1 1.5C5.6.9 8.4.8 13 1.3c0 0 0 0 0 0s0 0 0 0 0 0 0 0v8s0 0 0 0 0 0 0 0 0 0 0 0c-4.6.2-7.2.3-12 0 0 0 0 0 0 0s0 0 0 0 0 0 0 0V1.5s0 0 0 0 0 0 0 0 0 0 0 0z"/>
</svg>
